<?xml version="1.0" encoding="utf-8"?>
<!-- Generator: Adobe Illustrator 24.0.0, SVG Export Plug-In . SVG Version: 6.00 Build 0)  -->
<svg version="1.1" id="Calque_1" xmlns="http://www.w3.org/2000/svg" xmlns:xlink="http://www.w3.org/1999/xlink" x="0px" y="0px"
	 viewBox="0 0 411.9 407" style="enable-background:new 0 0 411.9 407;" xml:space="preserve">
<path d="M194.4,303.5c-0.4-6.6-0.8-12.1-1-17.6c-0.5-12.7-0.8-25.4-1.2-38.2c-0.2-6.8-0.6-13.6-0.7-20.5c-0.1-8.1,0-16.3-0.1-24.4
	c0-2.9-0.7-5.9-0.9-8.8c-0.2-3.2,0-6.4,0-9.6c-0.1-9.8,0.3-19.7-0.4-29.5c-0.9-12.6,0.1-25.2-0.4-37.8c-0.3-6.7-0.5-13.3-0.6-20
	c0-1.7,0.2-3.8,1.1-4.9c1-1.2,3.5-2.2,4.7-1.7c1.8,0.7,4.4,2.6,4.5,4.2c0.5,7.1,0.3,14.3,0.4,21.5c0,0.3,0.1,0.6,0.1,0.9
	c0.1,6.5,0.2,13,0.3,19.4c0.2,7.2,0.5,14.5,0.6,21.7c0.1,6.2-0.1,12.5,0.1,18.8c0.2,8,0.6,16.1,0.9,24.1c0.2,5.4,0.2,10.9,0.3,16.3
	c0.1,6.1,0.4,12.1,0.4,18.2c0.2,12.9,0.4,25.8,0.4,38.7c0,5.3-0.6,10.7-0.7,16c-0.1,4.4,0.1,8.9,0.1,13.3c0,3.2,0.2,6.5,0,9.7
	c-0.1,1.2-0.9,2.4-1.4,3.6c-0.4,0.9-0.8,1.8-1,2.7c-0.5,2.3-1.7,3.7-4.1,3.9c-1.7,0.1-4.2-3-4.1-5c0.1-1.6,0.1-2.8-1.6-3.7
	c-0.6-0.3-1-1.3-1.3-2c-1.7-5-3.2-10-5.1-14.9c-2-5.2-4.4-10.3-6.5-15.5c-0.3-0.8-0.3-1.8-0.6-2.6c-2.6-6.8-5.4-13.5-7.9-20.3
	c-1.2-3.1-1.7-6.5-2.8-9.6c-3.7-10.5-7.4-20.9-11.3-31.3c-2.2-6-4.9-11.7-7.1-17.7c-3.3-9.2-6.4-18.5-9.4-27.8
	c-2.3-7.1-4-14.3-6.4-21.3c-1.4-4.1-3.5-7.9-5.5-12.2c-2.5,1.9-1.3,4.2-1.4,6.1c-0.1,2.6,0,5.2,0,7.8c0,2.4-0.1,4.8,0,7.2
	c0.1,4,0.4,8.1,0.4,12.1c0.1,10.2-0.1,20.3,0,30.5c0,7.4,0.4,14.8,0.4,22.2c0,9.3-0.3,18.7-0.4,28c-0.1,7.5,0.2,15.1-0.1,22.6
	c-0.1,3.6-1.3,7.2-2,10.8c-0.5,0.1-1,0.3-1.5,0.4c-1.1-1.3-2.7-2.4-3.1-3.8c-1.6-5.7-2.9-11.4-2.5-17.6c0.5-8.3-0.9-16.7-1.2-25.1
	c-0.2-4.5,0.2-9.1,0.2-13.6c0-2.4-0.3-4.9-0.3-7.3c-0.1-5-0.2-9.9-0.3-14.9c0-1.4,0.4-2.9,0.2-4.3c-1.2-10.5-0.8-21.1-0.5-31.6
	c0.1-4.8-0.7-9.7-0.8-14.6c-0.1-7.1,0-14.3,0-21.4c0-3.6-0.6-7.2-0.5-10.7c0.2-4.6,0.5-9.2,1.3-13.7c0.4-2.1,2-3.8,4.6-3.8
	c2.5,0,4.7,0.7,5.9,3.1c3.9,7.7,6.8,15.7,8.9,24c1,4.1,3.4,7.8,5,11.8c1.4,3.5,2.5,7.1,3.7,10.6c2.4,7.1,4.6,14.3,7.1,21.3
	c2.2,6.1,5,12,7.1,18.1c2.7,7.8,4.8,15.8,7.3,23.6s5.5,15.5,8,23.4c2.2,7.1,4,14.3,6.3,21.3c0.8,2.6,2.7,4.8,3.5,7.3
	c1.7,5.3,3,10.8,4.5,16.2c1.2,4.5,2.3,9.2,3.9,13.6C190.5,300.8,192.4,301.7,194.4,303.5z"/>
<path d="M258.3,168.6c0,7.5-0.1,14.2,0,21c0,3.1,0.5,6.2,0.5,9.3c0.1,5.9,0,11.9,0,17.8c0,5.8-0.1,11.5,0.1,17.3
	c0.2,5.5,0.7,11,0.9,16.5c0.1,2.1-0.4,4.3-0.3,6.4c0.1,1.8,0.2,3.1,3.2,2.6c5.4-0.8,10.9-0.7,16.3-0.8c10.8-0.1,21.6-0.1,32.3-0.1
	c4.7,0,9.4-0.1,14.1,0c2.7,0.1,5-1.4,5.9-5c2.1-8.5,4-17.1,5.9-25.8c1-4.8,1.8-9.6,2.5-14.5c0.5-3.3,0.6-6.7,1-10.1
	c0.1-1.3,0.4-2.6,0.5-3.9c0.1-1.9,0.1-3.9,0.1-5.8c0-2.6,0.1-5.2,0-7.8c-0.1-3.5-0.4-6.9-0.6-10.4c-0.1-2.3,1.2-3.7,3.1-3.6
	c0.8,1.8,1.7,3.5,2.2,5.3c1.1,3.8,2.1,7.7,2.9,11.5c0.4,1.8,0,3.8-0.1,5.7c0,0.8-0.5,1.7-0.4,2.5c1.7,10.1,0.5,20.1-0.9,30
	c-1.5,10.9-4.2,21.7-6.8,32.5c-0.7,2.8-2.7,5.3-4.6,7.5c-0.9,1.1-3.4,2-4.5,1.5c-4.9-2.4-9.9-1-14.8-1c-12,0-24,0.3-36,0.4
	c-6.4,0-12.8-0.1-19.2-0.1c-1.1,0-2.2,0.5-3.1,1c-4.5,2.6-9.1,0.3-9.4-5c-0.4-6.7-0.4-13.5-0.6-20.2c-0.1-4.6-0.4-9.2-0.4-13.8
	c-0.1-6.6,0.1-13.1,0.1-19.7c0-7.5-0.1-15-0.1-22.5c-0.1-8.6-0.1-17.2-0.2-25.8c0-2.8,1.7-4.4,4-4.7c5.3-0.7,10.6-1,15.9-1.3
	c7.6-0.4,15.2-0.8,22.9-1c5.7-0.2,11.4,0,17.1,0c7.7,0,15.3-0.1,23-0.1c3.9,0,6.7,2.3,9.2,4.9c1.4,1.5,0.7,4.7-1.3,5.2
	c-3.5,1-7,1.7-10.6,2c-4,0.4-8.1,0.2-12.1,0.5c-4.2,0.3-8.6,1.5-12.6,0.9c-3.8-0.6-7.4-0.3-11.1-0.1c-5.1,0.3-10.3,0-15.5-0.1
	c-5.1-0.1-10.3-0.2-15.4-0.1C260.1,167.7,259,168.4,258.3,168.6z"/>
<g>
	<path d="M220.7,347.6c-0.5-7.2-1.1-14.5-1.3-21.7c-0.2-7.5,0.1-15-0.2-22.5c-0.2-6.7-0.8-13.5-1.2-20.2c-0.4-5.8-0.8-11.6-1-17.4
		c0-1,0.3-2,0.6-3c1.4-4.5,0.3-9,0-13.5c-0.4-5.3,0-10.6,0-15.9c0-2.1-0.4-4.2-0.4-6.3c-0.1-10-0.1-20.1-0.3-30.1
		c-0.1-4.8-0.5-9.5-0.6-14.3c-0.1-6.5,0.2-13.1,0.2-19.6c0-5.3,0-10.5-0.3-15.8c-0.2-5.7,2.4-9.4,9-10.6c3.8-0.7,7.9-0.2,11.9-0.2
		c4.7,0.1,9.3,0.3,14,0.3c8.1,0.1,16.1,0.1,24.2,0.3c6.7,0.2,13.4,1,20.1,1.2c8.6,0.1,17.3-0.2,25.9-0.3c1.6,0,3.3,0.4,4.9,0.3
		c3.8-0.1,7.7-0.4,11.5-0.6c2.2-0.1,3.9,0.3,3.9,3.1c0,2.4-1.9,5.1-3.9,5.1c-8.1,0.3-16.3,0.4-24.4,0.7c-7.7,0.2-15.5,0.5-23.2,0.5
		c-6.9,0-13.8-0.5-20.7-0.5c-8.1,0-16.2,0.4-24.4,0.5c-4.7,0.1-9.3,0-14-0.1c-2.4,0-3.5,0.4-3.2,3.4c0.5,5.1,0.3,10.3,0.5,15.4
		c0.1,2.9,0.3,5.7,0.6,8.6c0.8,9,0.4,18-0.4,27.1c-0.4,4.6,0.8,9.3,0.9,14c0.1,9.1-0.8,18.3,0.2,27.3c1.1,9-0.4,18,0.9,26.9
		c0.5,2.9-0.2,6.1-0.3,9.1c-0.1,1.8-0.2,3.7,0,5.5c0.4,3.6,0.4,7.2,0.2,10.9c-0.4,7.3,0.3,14.7,0.5,22c0.1,2.1,0,4.3,0,6.4
		c0,0.2-0.1,0.4-0.1,0.6c0.2,5.5,0.4,11.1,0.5,16.6c0.1,2.6,0,5.2-0.2,7.8c-0.1,2.2,0.6,2.7,2.9,2.3c3-0.6,6.1-0.9,9.1-0.8
		c4.3,0.2,7.3-2.7,11-3.9c4.7-1.5,9.2-3.7,13.8-5.7c0.3-0.1,0.6-0.2,0.8-0.4c4.1-5.3,10.5-7.4,15.9-10.7c5.9-3.6,12.2-6.5,18.1-10
		c2.5-1.5,4.5-3.8,7-5.3c1.8-1,4-1.7,6-1.8c1.9,0,2.6,2.4,1.1,3.8c-2.3,2.3-4.9,4.4-7.3,6.6c-1.2,1.2-2,2.8-3.3,3.7
		c-9.2,6.4-18.2,13-28.8,17c-5.6,2.1-11.4,4-17,6.1c-0.9,0.3-1.6,1.2-2.5,1.7c-2.7,1.8-5.6,2.7-9,3c-2.5,0.2-5,2.2-7.3,3.6
		c-3,1.9-5.8,3.1-9.5,1.6c-1.3-0.6-3-0.1-4.6-0.2c-5.4-0.1-6.9-1.6-7.1-7c0-1.6,0-3.3,0-4.9C220.6,347.6,220.6,347.6,220.7,347.6z"
		/>
	<path d="M328.9,289.9c3,0,5.4,2.5,5.7,5.7c0.4,4.9-3.3,10.4-8.2,11.9c-0.8,0.2-2.2,0.2-2.6-0.3c-0.6-0.7-0.9-2-0.8-3
		c0.3-3.2,1.1-6.3,1.4-9.5C324.7,291.8,326.2,289.9,328.9,289.9z"/>
</g>
<g>
	<path d="M11.5,150.1c0.9,2.2,1.6,3.8,2,4.7c-1.2,2.7-2.7,4.8-3.1,7.1c-0.9,4.9-1.3,9.9-1.8,14.8c-0.5,4.4-0.9,8.8-1.1,13.2
		c-0.2,5.4,0.3,10.8-0.4,16.1c-0.6,4.5,0.1,8.6,0.6,13s0.3,8.9,0.6,13.3c0.2,2.2,0.9,4.5,1.4,6.7c1.9,7.5,3.7,15.1,5.9,22.6
		c1,3.5,2.9,6.7,4.3,10.1c1,2.3,2.6,4.7,2.6,7.1c0.1,4.1,2.9,6.7,4.1,10.2c0.5,1.6,1.8,2.9,2.6,4.4c1.2,2.3,2.2,4.7,3.5,6.9
		c2,3.3,4.1,6.6,6.3,9.8c4.3,6.2,8.6,12.3,13,18.4c1.5,2.1,3.8,3.6,5.4,5.7c5.6,7.4,13.7,12.1,19.9,18.9c3.5,3.9,8.6,6.3,13,9.5
		c1.4,1,2.6,2.2,4,3.1c3.2,2.2,6.3,4.3,9.6,6.3c2.8,1.7,5.9,3,8.8,4.6c2.8,1.6,5.3,3.8,8.2,5c4.2,1.8,8.7,3.1,13,4.6
		c1.9,0.6,3.8,1.2,5.6,1.8c5,1.7,10,3.7,15.1,5c5,1.3,10.2,1.9,15.3,2.8c4,0.7,8,1.4,12.1,2c2.1,0.3,4.2,0.3,6.3,0.3
		c2.8,0.1,5.7,0,8.5,0.2c4.5,0.3,9,1.1,13.5,0.9c7.8-0.3,15.6-1.2,23.4-2c3.4-0.4,6.8-1,10.1-1.7c4-0.8,7.9-1.6,11.9-2.5
		c4.8-1.2,9.6-2.4,14.3-3.8c2.9-0.9,5.7-2.1,8.5-3.3c6.5-2.8,13-5.7,19.5-8.7c1.4-0.6,2.6-1.5,4-2.3c3-1.6,6.3-2.9,9.1-4.8
		c3.7-2.6,7.1-5.7,10.7-8.5c1.5-1.2,3-2.6,4.7-3.4c5.1-2.4,8.6-6.6,12.6-10.3c3-2.7,5.4-6.1,8.6-8.4c6.5-4.5,11.1-10.8,15.4-17
		c3.6-5.2,9.3-9.1,10.8-15.9c0.3-1.4,2.3-2.3,3.1-3.7c1.4-2.4,2.3-5.1,3.7-7.6c1.3-2.3,2.9-4.4,4.4-6.6c0.5-0.7,0.9-1.5,1.2-2.3
		c0.4-1.3,0.6-2.6,1.1-3.8c1.1-2.9,2.4-5.9,3.6-8.8c0.5-1.1,1.3-2.1,1.8-3.1c0.4-0.9,0.7-1.8,1-2.7c0.4-1,0.7-2,1-3
		c0.4-1.4,0.7-2.9,1.1-4.3c1.2-4.5,2.8-8.8,3-13.7c0.2-4.2,1.8-8.3,2.4-12.5c0.6-4.1,0.9-8.3,1.1-12.5c0.4-7,1.1-13.9,1-20.9
		c0-6.8-0.7-13.7-1.3-20.5c-0.3-3.9-0.8-7.9-1.7-11.8c-1.2-5.4-2.8-10.7-4.2-16.1c-0.6-2.4-1.2-4.7-2-7c-1.3-3.8-2.8-7.5-4.3-11.3
		c-0.7-1.8-1.9-3.5-2.2-5.3c-1-4.9-2.8-9.2-5.9-13.1c-1.6-2-2.4-4.6-3.9-6.8c-5.7-8.3-11.3-16.6-17.2-24.8
		c-3.5-4.8-7.2-9.4-11.2-13.7c-3.7-4-8-7.4-12.1-11c-3.9-3.4-7.8-6.9-12.1-10c-7.8-5.6-15.4-11.5-24.2-15.6c-4.5-2.1-8.6-5.1-13.2-7
		c-7.2-3-14.7-5.6-22.1-8.2c-3.8-1.3-7.7-2.6-11.7-3.4c-8-1.7-16-3.7-24.1-4.4c-11.2-0.5-22.5-0.5-33.9-0.5
		c-6.7,0-13.5,0.7-20.1,1.4c-3.5,0.4-6.9,1.6-10.4,2.5c-4.3,1.1-8.5,2.2-12.8,3.3c-10.3,2.6-20.4,6-29.8,11
		c-9.9,5.3-20,10.2-29.3,16.3c-6.9,4.5-12.8,10.4-19,15.9c-4.7,4.1-9.1,8.6-13.6,12.9c-2.7,2.6-5.7,4.3-9.6,3.8
		c-0.6-0.1-1.5-1-1.7-1.7c-1.5-5.3,1.3-9.1,4.8-12.4C62.3,56.5,70,49.3,78,42.5c4.3-3.6,9.3-6.3,14-9.4c1.5-0.9,3-1.7,4.5-2.6
		c4.4-2.4,8.6-5.1,13.1-7.3c7.5-3.6,15.1-6.9,22.9-10.1c5.4-2.2,10.9-4.3,16.5-5.6c8.2-2,16.6-3.6,25-4.7c10.3-1.2,20.7-1.5,31-2.5
		c12.7-1.2,25.1,1.1,37.4,3.6c5,1,10,1.5,15,2.7c4.9,1.2,9.9,2.6,14.6,4.5c11.1,4.4,22.3,8.8,33.1,14c6.3,3,12.1,7.1,17.9,11.1
		c7.5,5.3,15.1,10.5,22,16.5c9.2,7.9,17.2,16.9,24.1,26.8c5,7,10.1,13.9,14.8,21.1c2.7,4,5,8.3,6.9,12.7c3.8,8.6,7.5,17.3,10.9,26
		c1.1,2.8,1.3,6,2.1,8.9c1.2,5.1,2.8,10.2,3.8,15.3s1.1,10.5,2.3,15.5c2.8,11.8,1.8,23.8,1.8,35.7c0,6.2-1.1,12.5-2.3,18.6
		c-1.4,7-3.5,13.8-5.2,20.7c-1.2,4.9-2.3,9.9-3.6,14.8c-0.7,2.3-2,4.5-2.9,6.8c-0.6,1.6-0.6,3.4-1.4,4.9c-1.7,3.4-3.7,6.7-5.5,10.1
		c-0.7,1.3-1.3,2.8-1.7,4.2c-2.3,7.7-6.7,14.2-12.1,20.1c-1.6,1.7-2.9,3.9-3.5,6c-1.3,4.7-5.2,7.2-8.1,10.5
		c-5.6,6.4-11.8,12.3-17.1,18.8c-3.7,4.6-9.2,6.8-13.1,10.8c-6.9,7.2-16.1,11.1-23.9,17c-2.2,1.6-4.8,2.7-7.4,3.9
		c-7.6,3.4-15.3,6.6-22.8,10.3c-6.4,3.1-13.5,4.3-20,6.8c-5.8,2.2-11.5,2.8-17.4,3.7c-6.4,1-12.8,2.6-19.2,3.8
		c-2.5,0.5-5.2,0.4-7.8,0.4c-5.5,0-11-0.1-16.5-0.1c-3.2,0-6.3,0.4-9.5,0c-10.7-1.3-21.4-2.5-31.8-5.7c-5.2-1.6-10.7-2.6-15.9-4.3
		c-6.9-2.2-13.9-4.5-20.6-7.2c-4.8-1.9-9.3-4.4-13.7-7.1c-5.8-3.5-11.1-8.3-17.3-10.9c-4.7-2-7.7-5.9-12.3-7.9
		c-3-1.3-5.3-4.2-7.9-6.5c-3-2.7-6.2-5.2-9-8.1c-2.4-2.4-4.4-5.2-6.7-7.7c-1-1.1-2.5-1.8-3.4-2.9c-3.8-4.7-7.4-9.4-11.5-13.8
		c-2.5-2.7-4.5-6-6.4-9.2c-3.7-6.1-7.4-12.3-10.6-18.6c-2.7-5.3-4.3-11.3-7.3-16.4c-1.7-2.9-1.9-6.4-4.2-9.1
		c-1.1-1.3-0.8-3.7-1.4-5.5c-3.3-10-5.6-20.2-7-30.6c-0.6-4.4-1.3-8.7-1.8-13c-0.2-2.2,0-4.4-0.2-6.6c-0.4-4.1-1.1-8.2-1.6-12.3
		C0,202.7-0.1,202,0,201.3c0.4-4.4,1.2-8.7,1.2-13.1c-0.1-6.6,2-12.7,3.1-19c1-5.7,2.2-11.3,4.3-16.6
		C9.3,151.9,10.4,151.2,11.5,150.1z"/>
	<path d="M11.6,144c-0.2-2.6-0.7-5.2,2.3-6.5c0.1,0,0.2-0.1,0.2-0.2c0.8-1.1,0.2-4,2.7-2.9c0.9,0.4,1.1,2.8,1.3,4.4
		C18.4,143.2,15.9,145.2,11.6,144z"/>
</g>
<g>
	<path d="M378.3,204.4c-0.3-4.6-0.4-9.2-0.8-13.7c-0.5-5.4,0.1-10.7-1.6-16.1c-2-6.5-2.8-13.3-4.8-19.8c-1.4-4.7-3.9-9.1-5.8-13.7
		c-1.1-2.5-2-5.2-3.2-7.6c-3-5.6-5.8-11.3-9.2-16.7c-4.3-6.8-8.6-13.7-13.8-19.8c-5.4-6.3-11.9-11.6-17.9-17.3
		c-3.3-3.1-6.3-6.5-10-8.9c-6.3-4.1-11.9-9.2-18.8-12.4c-6-2.7-11.6-6.5-17.7-9c-6.6-2.8-13.6-4.8-20.5-6.8
		c-5.2-1.5-10.5-2.6-15.8-3.4c-6.2-1-12.6-1.6-18.9-2.1c-5.5-0.5-11.1-1-16.6-0.8c-6.7,0.2-13.3,1.1-20,1.8
		c-4.4,0.5-8.9,0.9-13.2,1.8c-4.5,0.9-9,2.4-13.4,3.7c-4.1,1.2-8.3,2.2-12.2,3.8c-6.6,2.8-13.2,5.8-19.5,9.3
		c-8,4.5-15.7,9.4-23.3,14.5c-3.8,2.6-6.8,6.4-10.5,9.3c-7.4,5.9-13.5,13.1-19.5,20.4c-0.9,1.1-2.3,2.1-3.7,2.6
		c-2.7,0.9-5.3-1.2-4.3-4c1-2.9,2.6-5.7,4.5-8.1c7.3-8.7,15.3-16.7,24.2-23.8c3.1-2.5,6-5.1,9.3-7.3c5.2-3.5,10.5-7.1,16.1-10
		c8.4-4.3,16.8-8.4,25.6-11.8c8.9-3.4,18-6.3,27.5-7.5c7.4-1,14.7-2.8,22.1-3.4c7.2-0.6,14.5-0.4,21.7-0.2
		c5.9,0.2,11.8,0.7,17.6,1.7c7.7,1.2,15.4,2.8,23,4.5c4.9,1.1,9.8,2.6,14.6,4.3c3.3,1.1,6.4,2.5,9.5,4c8.4,4.2,16.8,8.4,24.9,13
		c3.9,2.2,7.2,5.4,10.7,8.1c3.6,2.7,7.3,5.2,10.6,8.2c6.7,6.1,13.5,12.1,19.5,18.8c4.8,5.4,8.6,11.7,12.7,17.7
		c2.1,3,3.7,6.3,5.9,9.2c3.7,4.7,5.5,10.3,7.6,15.7c1.5,3.9,3.6,7.6,5.4,11.4c0.5,1.2,0.7,2.5,1.1,3.8c1.5,5.2,3.1,10.3,4.5,15.5
		c0.4,1.4-0.1,3.1,0.3,4.5c0.5,1.8,1.9,3.4,2.2,5.2c0.8,4.3,1.4,8.6,1.9,12.9c0.6,6.1,1.6,12.2,1.5,18.3c-0.1,7.4-1,14.8-1.7,22.2
		c-0.5,4.7-1.1,9.5-2.2,14.1c-2,8.2-4.2,16.5-6.9,24.5c-2,5.9-4.7,11.7-7.5,17.3c-3.2,6.5-6.9,12.7-10.5,19
		c-4.3,7.5-8.9,14.8-15.3,20.8c-3.3,3.1-5.7,7.4-9.3,9.8c-6.4,4.3-10.3,11.3-17.5,14.9c-6,2.9-11.1,7.8-16.8,11.5
		c-3,1.9-6.3,3.2-9.5,4.7c-1.7,0.8-3.5,1.6-5.2,2.4c-1.8,0.8-3.6,1.7-5.5,2.5c-8.7,3.4-17.3,7.1-26.1,10.1c-4.3,1.5-9,2-13.6,2.7
		c-6.5,1-13.1,1.6-19.7,2.5c-8.9,1.3-17.7,1.2-26.6,0c-3.6-0.5-7.4-0.2-11-0.8c-3.9-0.7-7.7-2-11.5-3c-2.8-0.7-5.7-1.1-8.5-1.9
		c-4.7-1.3-9.6-1.3-14.2-3.8c-4.8-2.6-10.4-3.7-15.6-5.5c-1.3-0.5-2.4-1.6-3.6-2.2c-5.3-2.9-10.8-5.3-15.9-8.6
		c-6.4-4.2-12.4-8.9-18.6-13.4c-1.8-1.3-3.6-2.5-5.3-3.9c-1-0.9-1.7-2.2-2.6-3.2c-1-1.1-2-2.1-3.1-3c-2.5-2.2-5.7-3.9-7.4-6.5
		c-1.4-2.3-4.4-3.6-4.4-6.8c0-0.7-1-1.8-1.8-2.1c-2.1-0.6-2.9-2.5-4.4-3.6c-1.7-1.4-1.9-2.8-2.1-4.4c-0.1-0.7,0.1-1.8,0.6-2.1
		c0.7-0.3,1.8-0.3,2.5,0c3,1.6,4.4,4.5,5.7,7.4c0.6,1.2,1.1,1.8,2.5,2.5c2.5,1.2,4.6,3.3,6.4,5.4c1.5,1.6,2.3,3.9,3.7,5.6
		c1.1,1.4,2.5,2.5,3.9,3.6c4.8,3.6,9.4,7.8,14.7,10.6c6.7,3.6,12.7,8.2,19.5,11.7c12.2,6.4,25.1,10.6,38.2,14.6
		c6.6,2,13.4,3.5,20.2,4.2c7.7,0.8,15.5,0.3,23.2,0.5c3.4,0.1,6.8,0.6,10.3,0.7c2.4,0.1,4.8-0.3,7.2-0.5c2.2-0.2,4.4-0.2,6.5-0.6
		c1.2-0.2,2.4-1,3.6-1.3c6.5-1.4,13.2-2.3,19.6-4c6.9-1.8,13.8-4.1,20.5-6.6c3.8-1.4,7.1-3.9,10.8-5.6c7.6-3.5,15-7.3,21.8-12.2
		c9.9-7.1,18.8-15.2,27.3-23.9c6.5-6.6,11.9-13.9,17.5-21.2c4.1-5.4,6.2-11.6,9.3-17.4c4.1-7.7,7.6-15.8,10.5-24
		c2.2-6.2,3.6-12.8,4.6-19.3c1.7-11.3,2.9-22.7,4.3-34C378.7,204.4,378.5,204.4,378.3,204.4z"/>
	<path d="M54.3,291.8c1.2,1.7,2,2.8,2.8,3.8c-0.1,0.3-0.1,0.6-0.2,0.9c-1.6-0.2-3.2-0.3-4.8-0.5C52.8,294.7,53.5,293.4,54.3,291.8z"
		/>
</g>
<g>
	<path d="M142,70.2c-2,1.8-3.8,3.6-5.8,5c-2.5,1.7-5.1,3.2-7.7,4.7c-4,2.3-8.4,4.2-11.5,7.9c-0.7,0.8-1.9,1.2-2.7,1.8
		c-3.3,2.4-6.8,4.7-9.9,7.3c-1.7,1.4-3,3.4-4.5,5.1c-1.2,1.3-2.6,2.5-3.9,3.9c-1.1,1.1-2.1,2.3-3.1,3.5c-3.2,3.9-6.4,7.8-9.5,11.8
		c-1.3,1.7-2.6,3.6-3.6,5.5c-3.2,6.3-6.5,12.5-9.3,18.9c-1.6,3.7-2.1,7.8-3.7,11.5c-2.9,6.6-3.2,13.9-5.2,20.7
		c-0.6,1.9-0.4,4-0.4,6.1c-0.3,7.4-2.3,14.8,0,21.5c9.1-0.7,18-1.5,27-1.8c4.8-0.2,9.6,0.4,14.4,1c2.2,0.3,4.3,1.3,4.7,4.1
		c0.3,2.7-0.8,4.3-3.4,5.4c-4.2,1.9-8.5,1.9-12.9,2c-5.3,0.1-10.5,0.3-15.8,0c-4-0.2-8.1-0.9-12-1.7c-2.7-0.5-2.6,1.2-2.4,2.6
		c1.1,6.7,2.3,13.4,3.7,20c2.4,11.9,7,23,12,33.9c1.9,4.2,4.9,7.9,7.3,11.8c1.2,1.9,2.1,3.9,3.4,5.7c3.1,4.5,6.2,9,9.7,13.2
		c2.7,3.2,5.9,6,9.1,8.7c7.2,5.9,14.2,12,21.8,17.3c10,6.9,20.7,12.6,32.3,16.4c7.3,2.4,14.8,4.1,22.3,5.9c3,0.7,6.2,1.1,9.4,1.1
		c1.3,0,2.6-1.7,4-2.5s2.9-1.8,4.5-1.9c1-0.1,2,1.3,3,2.1c0.3,0.2,0.5,0.8,0.4,1.1c-0.4,2.8-0.8,5.6-1.5,8.4
		c-0.7,2.6-2.8,3.9-5.4,3.6c-5.6-0.5-11.2-0.9-16.8-1.9c-6-1.1-12-2.3-17.8-4.4c-8.1-2.8-15.9-6.3-23.7-9.8
		c-11.5-5.2-21.1-13.5-31.1-20.9c-6.5-4.8-12-10.6-17.1-16.8c-2.4-2.9-5.1-5.6-7.4-8.5c-1.2-1.5-1.8-3.5-2.8-5.3
		c-0.9-1.7-1.9-3.4-2.9-5c-2.6-4-5.7-7.7-7.9-11.9c-2.3-4.4-3.6-9.2-5.6-13.8c-0.9-2-2.4-3.8-3.3-5.8c-1-2.3-1.5-4.8-2.5-7
		c-3-6.8-3.9-14.1-5-21.3c-1.4-8.6-2.4-17.2-3-25.9c-0.3-4.4,0.4-9,1-13.5c1-7.3,1.9-14.7,3.6-21.8c1.2-4.9,3.8-9.4,5.6-14.2
		c0.8-2,1.1-4.2,1.8-6.3c0.4-1.2,0.9-2.4,1.5-3.5c2-4.4,3.8-8.8,6.1-13c2.4-4.5,5.2-8.8,7.9-13.2c1.5-2.4,3.2-4.8,4.9-7
		c1.2-1.5,2.8-2.8,4.1-4.2c1.6-1.8,3-3.7,4.7-5.4c3.2-3.3,6.8-6.1,9.7-9.7c4.4-5.5,10.8-8.1,16.3-12.1c5.2-3.8,11.1-6.8,17.1-9.1
		c1.9-0.7,4.6-1.2,7-1.5C141.6,69.3,142,70.2,142,70.2z"/>
	<path d="M230.6,60.1c-1.2,3.2-1.7,6.5-3.5,8.7c-1.2,1.5-4.3,2.1-6.5,2c-2.1-0.1-4-4.2-3.6-6.5c1.1-6.1,6.9-10.9,11.9-6.3
		C229.4,58.5,229.9,59.3,230.6,60.1z"/>
	<path d="M194.2,67.3c-1-0.4-1.7-0.6-2.2-1c-2.1-1.5-4.3-3-6.1-4.8c-0.7-0.7-0.9-2.3-0.6-3.3c0.2-0.7,1.7-1.3,2.6-1.3
		c3.1-0.1,6.2,0,8.6,2.6c1.7,1.9,1,3.9,0.3,5.7C196.5,66.1,195.1,66.6,194.2,67.3z"/>
	<path d="M271.1,75.8c-1.8-0.6-3.6-1.1-5.5-1.7c0-0.3-0.1-0.7-0.1-1c1-0.5,1.9-1.3,2.9-1.5c0.3-0.1,0.8,1.4,1.4,2.1
		c0.4,0.5,1.1,0.8,1.6,1.2C271.4,75.2,271.2,75.5,271.1,75.8z"/>
	<path d="M250.8,66.5c-1.5-0.7-2.2-1.2-3-1.3c-0.7-0.2-1.4,0-2.1,0c0.3-0.8,0.6-1.6,1-2.4c0.2-0.3,0.6-0.5,0.7-0.5
		c1.1,0.6,2,1.2,3.6,2.1C251,64.4,250.9,65.4,250.8,66.5z"/>
	<path d="M277.4,77.1c-1.5,0.8-2.4,1.6-2.9,1.4c-0.8-0.2-1.4-1.1-1.9-1.9c-0.1-0.2,1-1.5,1.3-1.4C274.8,75.5,275.7,76.2,277.4,77.1z
		"/>
</g>
</svg>
